<mxfile host="app.diagrams.net" agent="Mozilla/5.0 (Macintosh; Intel Mac OS X 10_15_7) AppleWebKit/537.36 (KHTML, like Gecko) Chrome/130.0.0.0 Safari/537.36" version="24.8.3">
  <diagram name="Page-1" id="ibU63S71F5f9mqeSKste">
    <mxGraphModel dx="740" dy="530" grid="0" gridSize="10" guides="1" tooltips="1" connect="1" arrows="1" fold="1" page="1" pageScale="1" pageWidth="827" pageHeight="1169" math="0" shadow="0">
      <root>
        <mxCell id="0" />
        <mxCell id="1" parent="0" />
        <mxCell id="Jtmtclb_w1RMz-2mAQgD-37" value="item" style="shape=parallelogram;perimeter=parallelogramPerimeter;whiteSpace=wrap;html=1;fixedSize=1;" vertex="1" parent="1">
          <mxGeometry x="349" y="36" width="106" height="30" as="geometry" />
        </mxCell>
        <mxCell id="Jtmtclb_w1RMz-2mAQgD-38" value="position = -1,&amp;nbsp;&lt;span style=&quot;background-color: initial;&quot;&gt;left = 0,&lt;/span&gt;&lt;div&gt;right = NumberOfStrings - 1,&lt;/div&gt;&lt;div&gt;found = false,&amp;nbsp;&lt;span style=&quot;background-color: initial;&quot;&gt;middle&lt;/span&gt;&lt;/div&gt;" style="rounded=0;whiteSpace=wrap;html=1;" vertex="1" parent="1">
          <mxGeometry x="317" y="110" width="170" height="40" as="geometry" />
        </mxCell>
        <mxCell id="Jtmtclb_w1RMz-2mAQgD-39" value="Null" style="rounded=0;whiteSpace=wrap;html=1;" vertex="1" parent="1">
          <mxGeometry x="370" y="240" width="70" height="20" as="geometry" />
        </mxCell>
        <mxCell id="Jtmtclb_w1RMz-2mAQgD-40" value="return position" style="rounded=0;whiteSpace=wrap;html=1;" vertex="1" parent="1">
          <mxGeometry x="240" y="320" width="100" height="40" as="geometry" />
        </mxCell>
        <mxCell id="Jtmtclb_w1RMz-2mAQgD-41" value="" style="endArrow=classic;html=1;rounded=0;entryX=0.413;entryY=0.039;entryDx=0;entryDy=0;entryPerimeter=0;" edge="1" parent="1" target="Jtmtclb_w1RMz-2mAQgD-40">
          <mxGeometry width="50" height="50" relative="1" as="geometry">
            <mxPoint x="370" y="250" as="sourcePoint" />
            <mxPoint x="210.70000000000005" y="356.43999999999994" as="targetPoint" />
            <Array as="points">
              <mxPoint x="280" y="250" />
            </Array>
          </mxGeometry>
        </mxCell>
        <mxCell id="Jtmtclb_w1RMz-2mAQgD-43" value="middle = (left+right)/2" style="rounded=0;whiteSpace=wrap;html=1;" vertex="1" parent="1">
          <mxGeometry x="470" y="320" width="100" height="40" as="geometry" />
        </mxCell>
        <mxCell id="Jtmtclb_w1RMz-2mAQgD-45" value="" style="endArrow=classic;html=1;rounded=0;entryX=0.5;entryY=0;entryDx=0;entryDy=0;exitX=1;exitY=0.5;exitDx=0;exitDy=0;" edge="1" parent="1" source="Jtmtclb_w1RMz-2mAQgD-39" target="Jtmtclb_w1RMz-2mAQgD-43">
          <mxGeometry width="50" height="50" relative="1" as="geometry">
            <mxPoint x="540" y="290" as="sourcePoint" />
            <mxPoint x="590" y="240" as="targetPoint" />
            <Array as="points">
              <mxPoint x="520" y="250" />
            </Array>
          </mxGeometry>
        </mxCell>
        <mxCell id="Jtmtclb_w1RMz-2mAQgD-46" value="Null" style="rounded=0;whiteSpace=wrap;html=1;" vertex="1" parent="1">
          <mxGeometry x="490" y="400" width="70" height="20" as="geometry" />
        </mxCell>
        <mxCell id="Jtmtclb_w1RMz-2mAQgD-47" value="" style="endArrow=classic;html=1;rounded=0;entryX=0.429;entryY=0;entryDx=0;entryDy=0;entryPerimeter=0;" edge="1" parent="1" target="Jtmtclb_w1RMz-2mAQgD-46">
          <mxGeometry width="50" height="50" relative="1" as="geometry">
            <mxPoint x="520" y="360" as="sourcePoint" />
            <mxPoint x="570" y="310" as="targetPoint" />
          </mxGeometry>
        </mxCell>
        <mxCell id="Jtmtclb_w1RMz-2mAQgD-50" value="found = true&lt;div&gt;position = middle&lt;/div&gt;" style="rounded=0;whiteSpace=wrap;html=1;" vertex="1" parent="1">
          <mxGeometry x="610" y="490" width="100" height="40" as="geometry" />
        </mxCell>
        <mxCell id="Jtmtclb_w1RMz-2mAQgD-51" value="" style="endArrow=classic;html=1;rounded=0;entryX=0.5;entryY=0;entryDx=0;entryDy=0;exitX=1;exitY=0.5;exitDx=0;exitDy=0;" edge="1" parent="1">
          <mxGeometry width="50" height="50" relative="1" as="geometry">
            <mxPoint x="561" y="412" as="sourcePoint" />
            <mxPoint x="661" y="492" as="targetPoint" />
            <Array as="points">
              <mxPoint x="661" y="412" />
            </Array>
          </mxGeometry>
        </mxCell>
        <mxCell id="Jtmtclb_w1RMz-2mAQgD-52" value="" style="endArrow=classic;html=1;rounded=0;exitX=0;exitY=0.75;exitDx=0;exitDy=0;" edge="1" parent="1" source="Jtmtclb_w1RMz-2mAQgD-46" target="Jtmtclb_w1RMz-2mAQgD-53">
          <mxGeometry width="50" height="50" relative="1" as="geometry">
            <mxPoint x="360" y="460" as="sourcePoint" />
            <mxPoint x="390" y="490" as="targetPoint" />
            <Array as="points">
              <mxPoint x="375" y="415" />
            </Array>
          </mxGeometry>
        </mxCell>
        <mxCell id="Jtmtclb_w1RMz-2mAQgD-53" value="Null" style="rounded=0;whiteSpace=wrap;html=1;" vertex="1" parent="1">
          <mxGeometry x="340" y="500" width="70" height="20" as="geometry" />
        </mxCell>
        <mxCell id="Jtmtclb_w1RMz-2mAQgD-54" value="!found &amp;amp;&amp;amp; left &amp;lt;= right" style="text;html=1;align=center;verticalAlign=middle;whiteSpace=wrap;rounded=0;" vertex="1" parent="1">
          <mxGeometry x="455" y="270" width="140" height="30" as="geometry" />
        </mxCell>
        <mxCell id="Jtmtclb_w1RMz-2mAQgD-55" value="_strings[middle] == item" style="text;html=1;align=center;verticalAlign=middle;whiteSpace=wrap;rounded=0;" vertex="1" parent="1">
          <mxGeometry x="580" y="440" width="140" height="30" as="geometry" />
        </mxCell>
        <mxCell id="Jtmtclb_w1RMz-2mAQgD-56" value="NOT(_strings[middle] == item)" style="text;html=1;align=center;verticalAlign=middle;whiteSpace=wrap;rounded=0;" vertex="1" parent="1">
          <mxGeometry x="260" y="440" width="200" height="30" as="geometry" />
        </mxCell>
        <mxCell id="Jtmtclb_w1RMz-2mAQgD-59" value="" style="endArrow=classic;html=1;rounded=0;" edge="1" parent="1">
          <mxGeometry width="50" height="50" relative="1" as="geometry">
            <mxPoint x="399" y="68" as="sourcePoint" />
            <mxPoint x="399.43" y="108" as="targetPoint" />
          </mxGeometry>
        </mxCell>
        <mxCell id="Jtmtclb_w1RMz-2mAQgD-60" value="" style="endArrow=classic;html=1;rounded=0;entryX=0.423;entryY=-0.157;entryDx=0;entryDy=0;entryPerimeter=0;" edge="1" parent="1" target="Jtmtclb_w1RMz-2mAQgD-39">
          <mxGeometry width="50" height="50" relative="1" as="geometry">
            <mxPoint x="400" y="200" as="sourcePoint" />
            <mxPoint x="450" y="150" as="targetPoint" />
          </mxGeometry>
        </mxCell>
        <mxCell id="Jtmtclb_w1RMz-2mAQgD-61" value="_strings[middle].CompareTo(item)&amp;gt;0&amp;nbsp;" style="text;html=1;align=center;verticalAlign=middle;whiteSpace=wrap;rounded=0;" vertex="1" parent="1">
          <mxGeometry x="400" y="555" width="200" height="30" as="geometry" />
        </mxCell>
        <mxCell id="Jtmtclb_w1RMz-2mAQgD-62" value="NOT(!found &amp;amp;&amp;amp; left &amp;lt;= right)" style="text;html=1;align=center;verticalAlign=middle;whiteSpace=wrap;rounded=0;" vertex="1" parent="1">
          <mxGeometry x="190" y="270" width="140" height="30" as="geometry" />
        </mxCell>
        <mxCell id="Jtmtclb_w1RMz-2mAQgD-64" value="right = middle -1" style="rounded=0;whiteSpace=wrap;html=1;" vertex="1" parent="1">
          <mxGeometry x="430" y="620" width="100" height="40" as="geometry" />
        </mxCell>
        <mxCell id="Jtmtclb_w1RMz-2mAQgD-65" value="" style="endArrow=classic;html=1;rounded=0;entryX=0.566;entryY=-0.093;entryDx=0;entryDy=0;entryPerimeter=0;" edge="1" parent="1" target="Jtmtclb_w1RMz-2mAQgD-64">
          <mxGeometry width="50" height="50" relative="1" as="geometry">
            <mxPoint x="410" y="510" as="sourcePoint" />
            <mxPoint x="460" y="460" as="targetPoint" />
            <Array as="points">
              <mxPoint x="487" y="510" />
            </Array>
          </mxGeometry>
        </mxCell>
        <mxCell id="Jtmtclb_w1RMz-2mAQgD-67" value="" style="endArrow=classic;html=1;rounded=0;exitX=0;exitY=0.5;exitDx=0;exitDy=0;entryX=0.5;entryY=0;entryDx=0;entryDy=0;" edge="1" parent="1" source="Jtmtclb_w1RMz-2mAQgD-53" target="Jtmtclb_w1RMz-2mAQgD-74">
          <mxGeometry width="50" height="50" relative="1" as="geometry">
            <mxPoint x="340" y="542" as="sourcePoint" />
            <mxPoint x="225" y="627" as="targetPoint" />
            <Array as="points">
              <mxPoint x="230" y="510" />
            </Array>
          </mxGeometry>
        </mxCell>
        <mxCell id="Jtmtclb_w1RMz-2mAQgD-68" value="NOT(_strings[middle].CompareTo(item)&amp;gt;0)&lt;div&gt;&amp;nbsp;&lt;/div&gt;" style="text;html=1;align=center;verticalAlign=middle;whiteSpace=wrap;rounded=0;" vertex="1" parent="1">
          <mxGeometry x="130" y="561" width="200" height="30" as="geometry" />
        </mxCell>
        <mxCell id="Jtmtclb_w1RMz-2mAQgD-70" value="[True]&lt;div&gt;&lt;br&gt;&lt;/div&gt;" style="text;html=1;align=center;verticalAlign=middle;resizable=0;points=[];autosize=1;strokeColor=none;fillColor=none;" vertex="1" parent="1">
          <mxGeometry x="400" y="80" width="50" height="40" as="geometry" />
        </mxCell>
        <mxCell id="Jtmtclb_w1RMz-2mAQgD-74" value="&lt;div&gt;&lt;br&gt;&lt;/div&gt;left = middle +1&lt;div&gt;&lt;br&gt;&lt;/div&gt;" style="rounded=0;whiteSpace=wrap;html=1;" vertex="1" parent="1">
          <mxGeometry x="180" y="620" width="100" height="40" as="geometry" />
        </mxCell>
        <mxCell id="Jtmtclb_w1RMz-2mAQgD-77" value="" style="ellipse;whiteSpace=wrap;html=1;aspect=fixed;" vertex="1" parent="1">
          <mxGeometry x="640" y="670" width="40" height="40" as="geometry" />
        </mxCell>
        <mxCell id="Jtmtclb_w1RMz-2mAQgD-78" value="" style="endArrow=classic;html=1;rounded=0;" edge="1" parent="1" target="Jtmtclb_w1RMz-2mAQgD-77">
          <mxGeometry width="50" height="50" relative="1" as="geometry">
            <mxPoint x="660" y="530" as="sourcePoint" />
            <mxPoint x="710" y="480" as="targetPoint" />
          </mxGeometry>
        </mxCell>
        <mxCell id="Jtmtclb_w1RMz-2mAQgD-79" value="" style="endArrow=classic;html=1;rounded=0;" edge="1" parent="1" target="Jtmtclb_w1RMz-2mAQgD-77">
          <mxGeometry width="50" height="50" relative="1" as="geometry">
            <mxPoint x="480" y="660" as="sourcePoint" />
            <mxPoint x="530" y="610" as="targetPoint" />
            <Array as="points">
              <mxPoint x="480" y="690" />
            </Array>
          </mxGeometry>
        </mxCell>
        <mxCell id="Jtmtclb_w1RMz-2mAQgD-80" value="" style="endArrow=classic;html=1;rounded=0;entryX=0.25;entryY=1;entryDx=0;entryDy=0;entryPerimeter=0;" edge="1" parent="1" target="Jtmtclb_w1RMz-2mAQgD-77">
          <mxGeometry width="50" height="50" relative="1" as="geometry">
            <mxPoint x="230" y="660" as="sourcePoint" />
            <mxPoint x="280" y="610" as="targetPoint" />
            <Array as="points">
              <mxPoint x="230" y="710" />
            </Array>
          </mxGeometry>
        </mxCell>
        <mxCell id="Jtmtclb_w1RMz-2mAQgD-81" value="" style="endArrow=classic;html=1;rounded=0;" edge="1" parent="1">
          <mxGeometry width="50" height="50" relative="1" as="geometry">
            <mxPoint x="680" y="690" as="sourcePoint" />
            <mxPoint x="410" y="200" as="targetPoint" />
            <Array as="points">
              <mxPoint x="740" y="690" />
              <mxPoint x="740" y="200" />
            </Array>
          </mxGeometry>
        </mxCell>
        <mxCell id="Jtmtclb_w1RMz-2mAQgD-84" value="" style="ellipse;whiteSpace=wrap;html=1;aspect=fixed;" vertex="1" parent="1">
          <mxGeometry x="384" y="180" width="30" height="30" as="geometry" />
        </mxCell>
        <mxCell id="Jtmtclb_w1RMz-2mAQgD-85" value="" style="endArrow=classic;html=1;rounded=0;entryX=0.5;entryY=0;entryDx=0;entryDy=0;" edge="1" parent="1" target="Jtmtclb_w1RMz-2mAQgD-84">
          <mxGeometry width="50" height="50" relative="1" as="geometry">
            <mxPoint x="400" y="150" as="sourcePoint" />
            <mxPoint x="450" y="100" as="targetPoint" />
          </mxGeometry>
        </mxCell>
        <mxCell id="Jtmtclb_w1RMz-2mAQgD-92" value="[True]&lt;div&gt;&lt;br&gt;&lt;/div&gt;" style="text;html=1;align=center;verticalAlign=middle;resizable=0;points=[];autosize=1;strokeColor=none;fillColor=none;" vertex="1" parent="1">
          <mxGeometry x="405" y="210" width="50" height="40" as="geometry" />
        </mxCell>
        <mxCell id="Jtmtclb_w1RMz-2mAQgD-93" value="[True]&lt;div&gt;&lt;br&gt;&lt;/div&gt;" style="text;html=1;align=center;verticalAlign=middle;resizable=0;points=[];autosize=1;strokeColor=none;fillColor=none;" vertex="1" parent="1">
          <mxGeometry x="520" y="360" width="50" height="40" as="geometry" />
        </mxCell>
        <mxCell id="Jtmtclb_w1RMz-2mAQgD-94" value="[True]&lt;div&gt;&lt;br&gt;&lt;/div&gt;" style="text;html=1;align=center;verticalAlign=middle;resizable=0;points=[];autosize=1;strokeColor=none;fillColor=none;" vertex="1" parent="1">
          <mxGeometry x="660" y="600" width="50" height="40" as="geometry" />
        </mxCell>
        <mxCell id="Jtmtclb_w1RMz-2mAQgD-95" value="[True]&lt;div&gt;&lt;br&gt;&lt;/div&gt;" style="text;html=1;align=center;verticalAlign=middle;resizable=0;points=[];autosize=1;strokeColor=none;fillColor=none;" vertex="1" parent="1">
          <mxGeometry x="545" y="660" width="50" height="40" as="geometry" />
        </mxCell>
        <mxCell id="Jtmtclb_w1RMz-2mAQgD-96" value="[True]&lt;div&gt;&lt;br&gt;&lt;/div&gt;" style="text;html=1;align=center;verticalAlign=middle;resizable=0;points=[];autosize=1;strokeColor=none;fillColor=none;" vertex="1" parent="1">
          <mxGeometry x="240" y="670" width="50" height="40" as="geometry" />
        </mxCell>
        <mxCell id="Jtmtclb_w1RMz-2mAQgD-97" value="1&lt;div&gt;&lt;br&gt;&lt;/div&gt;" style="text;html=1;align=center;verticalAlign=middle;whiteSpace=wrap;rounded=0;" vertex="1" parent="1">
          <mxGeometry x="445" y="38" width="60" height="30" as="geometry" />
        </mxCell>
        <mxCell id="Jtmtclb_w1RMz-2mAQgD-98" value="&lt;div&gt;2&lt;/div&gt;" style="text;html=1;align=center;verticalAlign=middle;whiteSpace=wrap;rounded=0;" vertex="1" parent="1">
          <mxGeometry x="478" y="112" width="60" height="30" as="geometry" />
        </mxCell>
        <mxCell id="Jtmtclb_w1RMz-2mAQgD-99" value="3" style="text;html=1;align=center;verticalAlign=middle;whiteSpace=wrap;rounded=0;" vertex="1" parent="1">
          <mxGeometry x="421" y="226" width="60" height="30" as="geometry" />
        </mxCell>
        <mxCell id="Jtmtclb_w1RMz-2mAQgD-100" value="4" style="text;html=1;align=center;verticalAlign=middle;whiteSpace=wrap;rounded=0;" vertex="1" parent="1">
          <mxGeometry x="568" y="307" width="60" height="30" as="geometry" />
        </mxCell>
        <mxCell id="Jtmtclb_w1RMz-2mAQgD-101" value="5" style="text;html=1;align=center;verticalAlign=middle;whiteSpace=wrap;rounded=0;" vertex="1" parent="1">
          <mxGeometry x="550" y="383" width="60" height="30" as="geometry" />
        </mxCell>
        <mxCell id="Jtmtclb_w1RMz-2mAQgD-102" value="6" style="text;html=1;align=center;verticalAlign=middle;whiteSpace=wrap;rounded=0;" vertex="1" parent="1">
          <mxGeometry x="694" y="479" width="60" height="30" as="geometry" />
        </mxCell>
        <mxCell id="Jtmtclb_w1RMz-2mAQgD-103" value="7" style="text;html=1;align=center;verticalAlign=middle;whiteSpace=wrap;rounded=0;" vertex="1" parent="1">
          <mxGeometry x="400" y="479" width="60" height="30" as="geometry" />
        </mxCell>
        <mxCell id="Jtmtclb_w1RMz-2mAQgD-104" value="8" style="text;html=1;align=center;verticalAlign=middle;whiteSpace=wrap;rounded=0;" vertex="1" parent="1">
          <mxGeometry x="515" y="598" width="60" height="30" as="geometry" />
        </mxCell>
        <mxCell id="Jtmtclb_w1RMz-2mAQgD-106" value="9" style="text;html=1;align=center;verticalAlign=middle;whiteSpace=wrap;rounded=0;" vertex="1" parent="1">
          <mxGeometry x="274" y="616" width="60" height="30" as="geometry" />
        </mxCell>
        <mxCell id="Jtmtclb_w1RMz-2mAQgD-107" value="10" style="text;html=1;align=center;verticalAlign=middle;whiteSpace=wrap;rounded=0;" vertex="1" parent="1">
          <mxGeometry x="327" y="313" width="60" height="30" as="geometry" />
        </mxCell>
      </root>
    </mxGraphModel>
  </diagram>
</mxfile>
